<svg width="199" height="90" viewBox="0 0 199 90" fill="none" xmlns="http://www.w3.org/2000/svg">
<path d="M39.7279 17.6707C41.2151 16.8109 43.0474 16.8109 44.5346 17.6707L64.227 29.0544L50.6104 37.0376C48.5026 34.9189 45.5856 33.6076 42.3629 33.6076C39.0114 33.6076 35.9906 35.0258 33.8666 37.2957L19.9219 29.1201L39.7279 17.6707Z" fill="white" fill-opacity="0.3"/>
<path d="M31.213 41.9065L17.2656 33.7295V56.5874L31.1611 48.4407C30.8758 47.4304 30.7231 46.3645 30.7231 45.2628C30.7231 44.0961 30.8943 42.9694 31.213 41.9065Z" fill="white" fill-opacity="0.3"/>
<path d="M33.7413 53.0942L20.1406 61.0681L39.7275 72.3908C41.2147 73.2504 43.047 73.2504 44.5342 72.3908L64.0074 61.1336L50.7398 53.3551C48.6229 55.5517 45.652 56.918 42.3625 56.918C38.9447 56.918 35.8709 55.4429 33.7413 53.0942Z" fill="white" fill-opacity="0.3"/>
<path d="M53.4635 48.7845L66.9974 56.7194C66.9979 56.6886 66.9983 56.6578 66.9983 56.627V33.5972L53.4062 41.5659C53.7942 42.7276 54.0042 43.9707 54.0042 45.2629C54.0042 46.4904 53.8148 47.6735 53.4635 48.7845Z" fill="white" fill-opacity="0.3"/>
<path fill-rule="evenodd" clip-rule="evenodd" d="M83.1082 58.3793C85.0588 59.5714 87.4026 60.1677 90.1386 60.1677C92.8746 60.1677 95.2179 59.5714 97.1689 58.3793C99.1325 57.1742 100.633 55.5002 101.672 53.3566C102.724 51.2135 103.249 48.7271 103.249 45.899C103.249 43.0706 102.724 40.5847 101.672 38.4413C100.633 36.2978 99.1325 34.63 97.1689 33.4377C95.2179 32.2328 92.8746 31.6304 90.1386 31.6304C87.4026 31.6304 85.0588 32.2328 83.1082 33.4377C81.1576 34.63 79.6565 36.2978 78.6052 38.4413C77.5665 40.5847 77.0469 43.0706 77.0469 45.899C77.0469 48.7271 77.5665 51.2135 78.6052 53.3566C79.6565 55.5002 81.1576 57.1742 83.1082 58.3793ZM94.718 54.6315C93.5019 55.456 91.9752 55.8617 90.1386 55.8492C88.3019 55.8237 86.769 55.3987 85.5404 54.5743C84.3243 53.7498 83.4125 52.602 82.8044 51.1307C82.1964 49.6469 81.8921 47.9029 81.8921 45.899C81.8921 43.8951 82.1964 42.1448 82.8044 40.6481C83.425 39.1515 84.3431 37.991 85.5592 37.1666C86.7753 36.3422 88.3019 35.9363 90.1386 35.949C91.9752 35.9744 93.5019 36.3993 94.718 37.2237C95.9466 38.0481 96.8647 39.2023 97.4727 40.6862C98.0938 42.1574 98.4038 43.8951 98.4038 45.899C98.4038 47.9029 98.0938 49.6531 97.4727 51.1499C96.8647 52.6462 95.9466 53.8071 94.718 54.6315Z" fill="white" fill-opacity="0.3"/>
<path d="M105.508 58.6343C105.508 59.1656 105.938 59.5968 106.469 59.5968H109.145C109.676 59.5968 110.106 59.1656 110.106 58.6343V49.152C110.106 48.3656 110.201 47.6365 110.391 46.9643C110.581 46.2794 110.872 45.6706 111.265 45.1379C111.671 44.6052 112.19 44.1677 112.823 43.8252C113.456 43.4447 114.166 43.2228 114.951 43.1593C115.246 43.1359 115.528 43.1289 115.796 43.1383C116.437 43.1609 117.06 42.6888 117.06 42.0471V39.8654C117.06 39.3948 116.721 38.9867 116.251 38.9605C115.9 38.9409 115.542 38.9453 115.179 38.9738C114.533 39.0119 113.9 39.1324 113.279 39.3353C112.671 39.5256 112.114 39.7919 111.607 40.1344C111.012 40.5022 110.499 40.9715 110.068 41.5422C109.881 41.7926 109.709 42.0558 109.555 42.3318V40.0125C109.555 39.4809 109.124 39.05 108.594 39.05H106.469C105.938 39.05 105.508 39.4809 105.508 40.0125V58.6343Z" fill="white" fill-opacity="0.3"/>
<path fill-rule="evenodd" clip-rule="evenodd" d="M129.028 60.1675C127.027 60.1675 125.348 59.692 123.993 58.7405C123.705 58.5389 123.433 58.3218 123.176 58.0894V58.6342C123.176 59.1655 122.746 59.5967 122.215 59.5967H120.09C119.559 59.5967 119.129 59.1655 119.129 58.6342V33.1635C119.129 32.6319 119.559 32.2009 120.09 32.2009H122.784C123.316 32.2009 123.746 32.6319 123.746 33.1635V40.0454C123.809 39.9981 123.872 39.9516 123.936 39.906C125.266 38.9547 126.906 38.4791 128.857 38.4791C130.795 38.4791 132.474 38.9547 133.892 39.906C135.324 40.8445 136.432 42.1319 137.218 43.768C138.003 45.3915 138.396 47.2432 138.396 49.3233C138.396 51.3779 138.009 53.2236 137.236 54.8595C136.464 56.4958 135.374 57.7895 133.968 58.7405C132.562 59.692 130.916 60.1675 129.028 60.1675ZM123.689 45.8037C123.347 46.8057 123.176 47.9788 123.176 49.3233C123.176 50.655 123.347 51.8283 123.689 52.8429C124.044 53.8574 124.595 54.6501 125.342 55.2209C126.102 55.7792 127.097 56.0579 128.325 56.0579C129.516 56.0579 130.498 55.7599 131.27 55.1641C132.043 54.5678 132.613 53.7626 132.981 52.7476C133.36 51.7205 133.551 50.5789 133.551 49.3233C133.551 48.0803 133.36 46.9515 132.981 45.9369C132.6 44.9095 132.012 44.0978 131.213 43.5017C130.415 42.8929 129.402 42.5885 128.173 42.5885C127.008 42.5885 126.058 42.8739 125.323 43.4446C124.588 44.0027 124.044 44.789 123.689 45.8037Z" fill="white" fill-opacity="0.3"/>
<path d="M141.445 58.6343C141.445 59.1657 141.876 59.5969 142.407 59.5969H145.063C145.594 59.5969 146.025 59.1657 146.025 58.6343V40.0126C146.025 39.481 145.594 39.05 145.063 39.05H142.407C141.876 39.05 141.445 39.481 141.445 40.0126V58.6343Z" fill="white" fill-opacity="0.3"/>
<path d="M162.221 58.7975C162.221 59.2609 161.892 59.6614 161.434 59.7283C160.35 59.8871 159.283 59.9511 158.231 59.9203C156.939 59.8948 155.78 59.6604 154.754 59.2162C153.728 58.7599 152.949 58.0433 152.417 57.0663C151.948 56.1788 151.701 55.2721 151.676 54.3461C151.651 53.4201 151.638 52.3738 151.638 51.2067V42.6457H148.875C148.344 42.6457 147.914 42.2147 147.914 41.6831V40.0126C147.914 39.481 148.344 39.05 148.875 39.05H151.638V34.3051C151.638 33.7735 152.069 33.3425 152.599 33.3425H155.237C155.768 33.3425 156.198 33.7735 156.198 34.3051V39.05H161.26C161.791 39.05 162.221 39.481 162.221 40.0126V41.6831C162.221 42.2147 161.791 42.6457 161.26 42.6457H156.198V50.9405C156.198 51.765 156.205 52.4878 156.217 53.1092C156.243 53.731 156.375 54.2383 156.616 54.6315C157.072 55.3924 157.801 55.8174 158.801 55.9059C159.504 55.9685 160.275 55.9617 161.115 55.8867C161.7 55.8342 162.221 56.2818 162.221 56.8699V58.7975Z" fill="white" fill-opacity="0.3"/>
<path d="M167.57 58.7599C169.065 59.6984 170.87 60.1677 172.985 60.1677C175.278 60.1677 177.216 59.6094 178.799 58.4933C180.127 57.5471 181.12 56.262 181.78 54.6387C181.99 54.1199 181.66 53.5567 181.114 53.435L178.295 52.8035C177.815 52.6962 177.34 52.9739 177.123 53.4157C176.794 54.0857 176.371 54.6238 175.854 55.0309C175.158 55.5887 174.201 55.8679 172.985 55.8679C171.262 55.8679 169.964 55.2653 169.09 54.0607C168.216 52.8555 167.779 51.2764 167.779 49.3234C167.779 48.0678 167.962 46.9453 168.33 45.956C168.697 44.9667 169.267 44.193 170.04 43.6349C170.813 43.0642 171.794 42.7788 172.985 42.7788C174.037 42.7788 174.974 43.0896 175.797 43.711C176.395 44.1532 176.87 44.7258 177.22 45.4288C177.45 45.8887 177.954 46.1737 178.45 46.0393L181.22 45.2881C181.723 45.1516 182.032 44.6358 181.859 44.1432C181.294 42.5354 180.325 41.2372 178.952 40.2485C177.343 39.069 175.373 38.4792 173.042 38.4792C170.965 38.4792 169.172 38.9485 167.665 39.8871C166.157 40.8129 164.992 42.094 164.169 43.7301C163.358 45.3536 162.947 47.218 162.934 49.3234C162.947 51.391 163.346 53.2425 164.131 54.8788C164.929 56.5147 166.075 57.8084 167.57 58.7599Z" fill="white" fill-opacity="0.3"/>
<path d="M141.337 33.5136L142.626 32.2222C143.189 31.6583 144.102 31.6583 144.665 32.2222L145.955 33.5136C146.518 34.0774 146.518 34.9916 145.955 35.5555L144.665 36.8468C144.102 37.4106 143.189 37.4106 142.626 36.8468L141.337 35.5555C140.773 34.9916 140.773 34.0774 141.337 33.5136Z" fill="white" fill-opacity="0.3"/>
</svg>
