<svg width="205" height="89" viewBox="0 0 205 89" fill="none" xmlns="http://www.w3.org/2000/svg">
<path d="M84.46 35.865V63.4595H77.6839V52.0993H67.1432V63.4595H60.3672V35.865H67.1432V46.6748H77.6839V35.865H84.46Z" fill="white" fill-opacity="0.3"/>
<path d="M91.1747 39.2457C89.9858 39.2457 89.0084 38.905 88.2425 38.2237C87.5027 37.5161 87.1328 36.6513 87.1328 35.6293C87.1328 34.5811 87.5027 33.7163 88.2425 33.0349C89.0084 32.3274 89.9858 31.9736 91.1747 31.9736C92.337 31.9736 93.2883 32.3274 94.0276 33.0349C94.794 33.7163 95.1769 34.5811 95.1769 35.6293C95.1769 36.6513 94.794 37.5161 94.0276 38.2237C93.2883 38.905 92.337 39.2457 91.1747 39.2457ZM94.5429 41.5256V63.4596H87.7669V41.5256H94.5429Z" fill="white" fill-opacity="0.3"/>
<path d="M110.194 57.76V63.4595H106.747C104.29 63.4595 102.375 62.8698 101.001 61.6909C99.6273 60.4852 98.9407 58.5332 98.9407 55.8338V47.1072H96.2461V41.5254H98.9407V36.1794H105.717V41.5254H110.155V47.1072H105.717V55.9124C105.717 56.5677 105.875 57.0391 106.192 57.3274C106.509 57.6158 107.037 57.76 107.777 57.76H110.194Z" fill="white" fill-opacity="0.3"/>
<path d="M133.226 52.1385C133.226 52.7675 133.186 53.4228 133.107 54.104H117.772C117.877 55.4668 118.313 56.515 119.079 57.2488C119.872 57.9564 120.836 58.3104 121.972 58.3104C123.663 58.3104 124.838 57.6023 125.499 56.1873H132.711C132.341 57.6287 131.667 58.9259 130.69 60.0789C129.739 61.232 128.537 62.1364 127.084 62.7912C125.631 63.4465 124.006 63.7742 122.21 63.7742C120.044 63.7742 118.115 63.3153 116.424 62.3984C114.734 61.4811 113.413 60.1709 112.462 58.4675C111.511 56.7641 111.035 54.7722 111.035 52.4926C111.035 50.2124 111.498 48.221 112.422 46.5176C113.373 44.8142 114.694 43.5039 116.385 42.5867C118.075 41.6695 120.017 41.2109 122.21 41.2109C124.35 41.2109 126.252 41.6564 127.916 42.5474C129.58 43.4384 130.875 44.7094 131.799 46.3604C132.75 48.0113 133.226 49.9374 133.226 52.1385ZM126.291 50.37C126.291 49.2168 125.895 48.2996 125.102 47.6182C124.31 46.9369 123.319 46.5962 122.131 46.5962C120.994 46.5962 120.031 46.9237 119.238 47.5789C118.472 48.234 117.996 49.1644 117.811 50.37H126.291Z" fill="white" fill-opacity="0.3"/>
<path d="M133.867 52.4926C133.867 50.2124 134.329 48.221 135.254 46.5176C136.205 44.8142 137.513 43.5039 139.177 42.5867C140.868 41.6695 142.796 41.2109 144.962 41.2109C147.736 41.2109 150.048 41.9316 151.897 43.3729C153.773 44.8142 155.001 46.8451 155.582 49.4657H148.37C147.763 47.7885 146.587 46.9499 144.843 46.9499C143.602 46.9499 142.611 47.4348 141.872 48.4044C141.132 49.3478 140.762 50.7106 140.762 52.4926C140.762 54.2745 141.132 55.6503 141.872 56.6199C142.611 57.5631 143.602 58.0349 144.843 58.0349C146.587 58.0349 147.763 57.1966 148.37 55.5191H155.582C155.001 58.0876 153.773 60.1053 151.897 61.5725C150.021 63.0403 147.71 63.7742 144.962 63.7742C142.796 63.7742 140.868 63.3153 139.177 62.3984C137.513 61.4811 136.205 60.1709 135.254 58.4675C134.329 56.7641 133.867 54.7722 133.867 52.4926Z" fill="white" fill-opacity="0.3"/>
<path d="M171.213 41.2894C173.749 41.2894 175.783 42.128 177.315 43.8051C178.847 45.4561 179.614 47.736 179.614 50.6448V63.4593H172.877V51.5487C172.877 50.0815 172.494 48.9415 171.728 48.1291C170.962 47.3167 169.932 46.9105 168.637 46.9105C167.343 46.9105 166.312 47.3167 165.546 48.1291C164.78 48.9415 164.397 50.0815 164.397 51.5487V63.4593H157.621V34.3711H164.397V44.4734C165.084 43.5038 166.022 42.7307 167.21 42.1542C168.399 41.5777 169.734 41.2894 171.213 41.2894Z" fill="white" fill-opacity="0.3"/>
<path d="M25.2852 49.0356V25.1748H33.3047V37.4404C34.7044 36.9044 36.2254 36.6106 37.8157 36.6106C44.7361 36.6106 50.3461 42.1757 50.3461 49.0407V63.4596H42.3267V49.0407C42.3267 46.5694 40.307 44.5659 37.8157 44.5659C35.3254 44.5659 33.3065 46.5676 33.3047 49.0374C33.3047 49.0385 33.3047 49.0396 33.3047 49.0407V63.4596H25.2852V49.0407C25.2852 49.039 25.2852 49.0373 25.2852 49.0356Z" fill="white" fill-opacity="0.3"/>
<path d="M42.3242 33.1301V25.1748H50.3436V33.1301H42.3242Z" fill="white" fill-opacity="0.3"/>
</svg>
