<svg width="205" height="89" viewBox="0 0 205 89" fill="none" xmlns="http://www.w3.org/2000/svg">
<g clip-path="url(#clip0_132_471)">
<path d="M85.2883 60.7139C84.4948 60.7139 83.8516 60.0743 83.8516 59.2854V30.6165C83.8516 29.8276 84.4948 29.188 85.2883 29.188H96.58C99.8719 29.188 102.378 29.9536 104.1 31.4849C105.851 32.9861 106.727 34.9227 106.727 37.2946C106.727 39.2763 106.183 40.8676 105.096 42.0686C104.039 43.2395 102.741 44.0352 101.2 44.4555C103.013 44.8158 104.507 45.7166 105.685 47.1578C106.863 48.569 107.452 50.2203 107.452 52.1118C107.452 54.6039 106.546 56.6606 104.734 58.2819C102.922 59.9033 100.355 60.7139 97.0333 60.7139H85.2883ZM89.6494 42.4289H95.7195C97.3502 42.4289 98.6032 42.0536 99.4794 41.3029C100.355 40.5523 100.793 39.4865 100.793 38.1053C100.793 36.7842 100.355 35.7484 99.4794 34.9977C98.6336 34.2171 97.3502 33.8268 95.6287 33.8268H89.6494V42.4289ZM89.6494 56.0301H96.1272C97.8486 56.0301 99.1772 55.6397 100.113 54.8591C101.08 54.0484 101.563 52.9225 101.563 51.4813C101.563 50.0101 101.065 48.8542 100.068 48.0135C99.0717 47.1728 97.7275 46.7524 96.0364 46.7524H89.6494V56.0301Z" fill="white" fill-opacity="0.3"/>
<path d="M120.04 61.2545C117.775 61.2545 115.767 60.7741 114.015 59.8133C112.264 58.8525 110.89 57.5014 109.893 55.76C108.897 54.0185 108.398 52.0069 108.398 49.725C108.398 47.4131 108.882 45.3564 109.848 43.5549C110.845 41.7534 112.203 40.3573 113.925 39.3665C115.676 38.3456 117.73 37.8352 120.085 37.8352C122.29 37.8352 124.238 38.3156 125.929 39.2764C127.62 40.2372 128.934 41.5583 129.87 43.2396C130.836 44.891 131.319 46.7376 131.319 48.7792C131.319 49.1095 131.304 49.4548 131.274 49.8151C131.274 50.1754 131.259 50.5507 131.229 50.941H114.151C114.272 52.6825 114.876 54.0485 115.963 55.0394C117.08 56.0302 118.424 56.5256 119.995 56.5256C121.172 56.5256 122.154 56.2704 122.939 55.76C123.754 55.2195 124.358 54.5289 124.751 53.6883H130.64C130.217 55.0994 129.507 56.3905 128.511 57.5614C127.544 58.7024 126.336 59.6031 124.887 60.2637C123.467 60.9242 121.852 61.2545 120.04 61.2545ZM120.085 42.5191C118.666 42.5191 117.413 42.9244 116.325 43.7351C115.238 44.5157 114.544 45.7167 114.242 47.3381H125.43C125.34 45.8668 124.796 44.6959 123.8 43.8252C122.803 42.9545 121.565 42.5191 120.085 42.5191Z" fill="white" fill-opacity="0.3"/>
<path d="M133.023 60.7141V38.3757H138.187L138.731 42.5642C139.546 41.123 140.649 40.5225 142.038 39.6818C143.457 38.8111 144.964 38.3757 146.867 38.3757V43.9153H145.39C144.122 43.9153 142.989 44.1105 141.992 44.5008C140.996 44.8911 140.211 45.5667 139.637 46.5275C139.094 47.4882 138.822 48.8244 138.822 50.5357V54.9494C138.822 58.1332 136.226 60.7141 133.023 60.7141Z" fill="white" fill-opacity="0.3"/>
<path d="M147.812 60.714V38.3757H152.931L153.384 42.1588C154.079 40.8377 155.075 39.7868 156.374 39.0062C157.703 38.2256 159.258 37.8352 161.04 37.8352C163.818 37.8352 165.977 38.706 167.517 40.4474C169.057 42.1888 169.827 44.7409 169.827 48.1036V54.9493C169.827 58.1331 167.231 60.714 164.029 60.714V48.6441C164.029 46.7225 163.637 45.2513 162.852 44.2305C162.066 43.2096 160.843 42.6992 159.182 42.6992C157.552 42.6992 156.208 43.2697 155.151 44.4106C154.124 45.5516 153.611 47.1429 153.611 49.1845V60.714H147.812Z" fill="white" fill-opacity="0.3"/>
<path fill-rule="evenodd" clip-rule="evenodd" d="M36.2625 35.1733C35.4541 35.9769 35 37.0672 35 38.2038V60.7143C35 63.0811 36.9299 65 39.3106 65H61.9515C63.0947 65 64.1912 64.5484 64.9995 63.7448L73.9693 54.8267C74.7777 54.0231 75.2318 52.9328 75.2318 51.7962V29.2857C75.2318 26.9189 73.3019 25 70.9212 25H48.2802C47.1371 25 46.0406 25.4517 45.2323 26.2552L36.2625 35.1733ZM55.1159 47.5202C55.1159 48.0357 55.5361 48.4536 56.0546 48.4536H65.6661C67.7998 48.4536 69.4485 47.9238 70.6124 46.8645C71.7762 45.8053 72.3581 44.4618 72.3581 42.8338C72.3581 41.5977 71.9799 40.519 71.2234 39.5972C70.4669 38.6555 69.5068 38.0671 68.3429 37.8317C69.3322 37.5572 70.1662 37.0372 70.8451 36.2723C71.5434 35.4876 71.8926 34.4479 71.8926 33.1532C71.8926 31.6036 71.3301 30.3387 70.205 29.3579C69.0994 28.3573 67.4894 27.8571 65.3752 27.8571H56.0546C55.5361 27.8571 55.1159 28.275 55.1159 28.7905V47.5202Z" fill="white" fill-opacity="0.3"/>
</g>
<defs>
<clipPath id="clip0_132_471">
<rect width="135" height="40" fill="white" transform="translate(35 25)"/>
</clipPath>
</defs>
</svg>
