<svg width="226" height="83" viewBox="0 0 226 83" fill="none" xmlns="http://www.w3.org/2000/svg">
<path d="M82.4344 55.06C84.383 56.0212 86.7165 56.5016 89.4337 56.5016C92.2887 56.5016 94.7452 55.9664 96.804 54.895C98.8628 53.8241 100.482 52.3964 101.662 50.6114C102.843 48.8265 103.57 46.8627 103.845 44.7207H97.9569C97.6274 46.7254 96.6805 48.2908 95.1156 49.4165C93.5785 50.5151 91.6846 51.0641 89.4337 51.0641C87.8965 51.0641 86.5381 50.8037 85.3576 50.2818C84.2047 49.76 83.2306 49.032 82.4344 48.0985C81.6381 47.1374 81.0345 46.0252 80.6226 44.7619C80.2383 43.4987 80.0461 42.1256 80.0461 40.6427C80.0461 39.1049 80.2383 37.7043 80.6226 36.4411C81.0345 35.1779 81.6248 34.0794 82.3934 33.1457C83.162 32.212 84.1227 31.498 85.2751 31.0037C86.428 30.4819 87.7458 30.2211 89.2282 30.2211C90.6829 30.2211 91.9864 30.4682 93.1393 30.9625C94.2922 31.4294 95.2391 32.1434 95.9805 33.1045C96.7491 34.0382 97.2431 35.1916 97.4629 36.5647H103.35C103.103 34.203 102.376 32.1434 101.168 30.3858C99.9603 28.6008 98.3411 27.2278 96.31 26.2666C94.306 25.278 91.9454 24.7837 89.2282 24.7837C86.6201 24.7837 84.3558 25.2368 82.4344 26.143C80.5405 27.0218 78.9757 28.2026 77.7408 29.6856C76.5054 31.1685 75.5857 32.8162 74.9821 34.6286C74.4056 36.4411 74.1172 38.281 74.1172 40.1484V41.0546C74.1172 42.7298 74.4056 44.4736 74.9821 46.286C75.5585 48.0985 76.4506 49.7738 77.6583 51.3117C78.8932 52.8496 80.4857 54.0989 82.4344 55.06Z" fill="white" fill-opacity="0.3"/>
<path fill-rule="evenodd" clip-rule="evenodd" d="M119.109 53.0002C119.392 52.5203 119.625 51.9908 119.809 51.4112V55.7191H124.338V41.8371C124.338 39.7501 123.94 38.0612 123.144 36.7705C122.375 35.4798 121.222 34.5324 119.685 33.9282C118.176 33.3241 116.268 33.022 113.962 33.022C113.221 33.022 112.425 33.0357 111.574 33.0632C110.751 33.0632 109.941 33.0907 109.145 33.1456C108.349 33.2005 107.635 33.2554 107.004 33.3103V38.171C107.773 38.1161 108.637 38.0749 109.598 38.0474C110.586 37.9925 111.561 37.9513 112.521 37.9239C113.482 37.8964 114.306 37.8827 114.992 37.8827C116.309 37.8827 117.284 38.1985 117.915 38.8301C118.546 39.4617 118.862 40.4229 118.862 41.7136V41.9195H114.292C112.315 41.9195 110.586 42.1804 109.104 42.7022C107.649 43.224 106.51 44.0066 105.687 45.0502C104.89 46.0937 104.492 47.4393 104.492 49.0868C104.492 50.5975 104.822 51.8883 105.481 52.9591C106.167 54.03 107.114 54.8538 108.321 55.4305C109.557 56.0073 110.984 56.2958 112.603 56.2958C114.168 56.2958 115.486 56.0211 116.556 55.4716C117.654 54.8949 118.505 54.0711 119.109 53.0002ZM118.079 50.3227C118.546 49.6086 118.807 48.6474 118.862 47.4393V45.3385H114.209C112.892 45.3385 111.876 45.668 111.163 46.3271C110.476 46.9587 110.133 47.7826 110.133 48.7987C110.133 49.8147 110.476 50.6385 111.163 51.2701C111.876 51.9016 112.892 52.2174 114.209 52.2174C115.005 52.2174 115.733 52.0805 116.392 51.8057C117.078 51.5038 117.64 51.0091 118.079 50.3227Z" fill="white" fill-opacity="0.3"/>
<path d="M138.335 56.5014C136.386 56.5014 134.698 56.1718 133.271 55.5131C131.871 54.8538 130.69 53.9752 129.729 52.8766C128.796 51.7781 128.096 50.5426 127.63 49.1693C127.163 47.7964 126.93 46.3957 126.93 44.9678V44.1851C126.93 42.6747 127.163 41.2329 127.63 39.8599C128.124 38.4594 128.851 37.2236 129.812 36.1526C130.773 35.0541 131.953 34.1891 133.353 33.5575C134.78 32.8984 136.427 32.5688 138.294 32.5688C140.243 32.5688 141.985 32.9533 143.523 33.7223C145.06 34.4637 146.281 35.5072 147.187 36.8528C148.12 38.1985 148.642 39.7638 148.752 41.5488H143.194C143.056 40.3954 142.562 39.4342 141.711 38.6653C140.888 37.8964 139.748 37.5119 138.294 37.5119C137.031 37.5119 135.974 37.814 135.123 38.4182C134.3 39.0223 133.683 39.8599 133.271 40.9309C132.859 41.9744 132.653 43.1827 132.653 44.5558C132.653 45.874 132.845 47.0686 133.23 48.1394C133.641 49.2108 134.259 50.0479 135.082 50.6523C135.933 51.2562 137.017 51.5586 138.335 51.5586C139.323 51.5586 140.174 51.3802 140.888 51.0229C141.601 50.6661 142.164 50.1715 142.576 49.5399C143.015 48.9084 143.289 48.1943 143.399 47.3981H148.958C148.848 49.2108 148.312 50.8035 147.352 52.1764C146.419 53.522 145.17 54.5791 143.605 55.348C142.068 56.1169 140.311 56.5014 138.335 56.5014Z" fill="white" fill-opacity="0.3"/>
<path d="M156.095 55.2247C157.44 55.7465 159.142 56.0074 161.201 56.0074H164.413V51.1057H160.912C159.815 51.1057 158.964 50.8171 158.36 50.2404C157.784 49.6365 157.495 48.785 157.495 47.6866L157.515 37.5533H164.413V33.3517H157.524L157.536 27.0493H152.184L152.171 33.3517H148.602V37.5533H152.162L152.143 47.3159C152.143 49.4853 152.472 51.2154 153.131 52.5062C153.79 53.7693 154.778 54.6756 156.095 55.2247Z" fill="white" fill-opacity="0.3"/>
<path d="M174.775 56.4196C172.195 56.4196 170.191 55.5681 168.764 53.8657C167.364 52.1628 166.664 49.6365 166.664 46.2861V33.3105H172.387V46.7804C172.387 48.1535 172.771 49.252 173.54 50.0758C174.308 50.872 175.352 51.2703 176.669 51.2703C177.987 51.2703 179.057 50.8448 179.881 49.9933C180.732 49.1423 181.157 47.9889 181.157 46.5333V33.3105H186.88V55.7194H182.351V50.5104C182.236 50.9841 182.099 51.4301 181.94 51.847C181.363 53.3577 180.498 54.4973 179.345 55.2662C178.193 56.0351 176.752 56.4196 175.022 56.4196H174.775Z" fill="white" fill-opacity="0.3"/>
<path d="M192.257 54.4831C194.013 55.7739 196.429 56.4193 199.503 56.4193C201.479 56.4193 203.195 56.1169 204.65 55.513C206.105 54.9086 207.23 54.071 208.026 53.0001C208.85 51.9015 209.261 50.6112 209.261 49.1282C209.261 47.1234 208.506 45.5306 206.997 44.3498C205.514 43.1689 203.456 42.4412 200.82 42.1666L198.844 41.9606C197.636 41.8233 196.758 41.5625 196.209 41.178C195.688 40.7935 195.427 40.2443 195.427 39.5303C195.427 38.7888 195.756 38.1847 196.415 37.7178C197.074 37.251 198.007 37.0176 199.215 37.0176C200.56 37.0176 201.589 37.2922 202.303 37.8414C203.017 38.3907 203.401 39.0497 203.456 39.8186H208.602C208.52 37.4844 207.628 35.7132 205.926 34.5048C204.224 33.2965 202.001 32.6924 199.256 32.6924C197.499 32.6924 195.935 32.967 194.562 33.5162C193.218 34.038 192.16 34.8207 191.392 35.8642C190.623 36.9077 190.239 38.1984 190.239 39.7363C190.239 41.6586 190.912 43.1964 192.257 44.3498C193.601 45.5032 195.523 46.2172 198.021 46.4918L199.997 46.6978C201.479 46.8351 202.523 47.1234 203.126 47.5628C203.758 48.002 204.073 48.5925 204.073 49.3343C204.073 50.1853 203.662 50.8583 202.838 51.3525C202.042 51.8467 200.958 52.0938 199.586 52.0938C197.939 52.0938 196.731 51.778 195.962 51.1464C195.194 50.5149 194.768 49.8146 194.686 49.0457H189.539C189.622 51.3525 190.527 53.1651 192.257 54.4831Z" fill="white" fill-opacity="0.3"/>
<path fill-rule="evenodd" clip-rule="evenodd" d="M41.6668 16.6953C28.0243 16.6953 16.9648 27.7598 16.9648 41.4086C16.9648 55.0575 28.0243 66.1218 41.6668 66.1218C55.3095 66.1218 66.3687 55.0575 66.3687 41.4086C66.3687 27.7598 55.3095 16.6953 41.6668 16.6953ZM22.5038 41.4086C22.5038 30.8203 31.0834 22.2368 41.6668 22.2368C52.2504 22.2368 60.8298 30.8203 60.8298 41.4086C60.8298 51.0716 53.6841 59.0649 44.3908 60.3881V56.1594L49.3095 54.3425C52.1521 53.2931 54.0398 50.5822 54.0398 47.5509V39.2243C54.0398 37.6941 52.7996 36.4536 51.2701 36.4536C49.7405 36.4536 48.5009 37.6941 48.5009 39.2243V47.5509C48.5009 48.262 48.0579 48.8979 47.3911 49.144L44.3908 50.2521V28.3201C44.3908 26.7899 43.1509 25.5494 41.6213 25.5494C40.0917 25.5494 38.8518 26.7899 38.8518 28.3201V40.2086L35.9412 39.1337C35.2744 38.8874 34.8316 38.2516 34.8316 37.5405V33.9511C34.8316 32.4208 33.5916 31.1803 32.0621 31.1803C30.5325 31.1803 29.2926 32.4208 29.2926 33.9511V37.5405C29.2926 40.572 31.1803 43.2825 34.0229 44.3323L38.8518 46.1158V60.3748C29.603 59.0129 22.5038 51.0401 22.5038 41.4086Z" fill="white" fill-opacity="0.3"/>
</svg>
