<svg width="34" height="50" viewBox="0 0 34 50" fill="none" xmlns="http://www.w3.org/2000/svg">
<g clip-path="url(#clip0_88_842)">
<path d="M10.0695 12.1396L10.0695 50H0L0 22.3559C0 16.7162 4.51306 12.1396 10.0695 12.1396Z" fill="white" fill-opacity="0.9"/>
<path d="M12.2031 26.6824C17.7618 26.6824 22.2726 31.2613 22.2726 36.8987L22.2726 50H12.2031L12.2031 26.6824Z" fill="white" fill-opacity="0.9"/>
<path d="M23.9297 39.7838C29.4883 39.7838 33.9992 44.3626 33.9992 50H23.9297L23.9297 39.7838Z" fill="white" fill-opacity="0.9"/>
<path d="M22.457 12.0811C22.457 17.7207 17.944 22.2973 12.3876 22.2973L12.3876 12.0811L22.457 12.0811Z" fill="white" fill-opacity="0.9"/>
<path d="M22.2726 5.10811C22.2726 2.28698 20.0185 0 17.2379 0C14.4573 0 12.2031 2.28698 12.2031 5.10811C12.2031 7.92924 14.4573 10.2162 17.2379 10.2162C20.0185 10.2162 22.2726 7.92924 22.2726 5.10811Z" fill="white" fill-opacity="0.9"/>
</g>
<defs>
<clipPath id="clip0_88_842">
<rect width="34" height="50" fill="white"/>
</clipPath>
</defs>
</svg>
