<svg width="161" height="50" viewBox="0 0 161 50" fill="none" xmlns="http://www.w3.org/2000/svg">
<path d="M69.36 21.152H62.096V40H57.712V21.152H50.448V17.28H69.36V21.152ZM80.1548 26.944C78.8534 26.944 77.6908 27.2 76.6667 27.712C75.6428 28.2027 74.9068 28.9173 74.4588 29.856V40H70.1708V23.232H74.1068V26.816C74.7041 25.664 75.4614 24.7573 76.3788 24.096C77.2961 23.4347 78.2668 23.072 79.2908 23.008C79.5254 23.008 79.7068 23.008 79.8348 23.008C79.9628 23.008 80.0694 23.0187 80.1548 23.04V26.944ZM82.5458 40V23.232H86.8338V40H82.5458ZM82.5458 20.896V16.64H86.8338V20.896H82.5458ZM100.75 40.32C99.4487 40.32 98.2967 40.032 97.294 39.456C96.3127 38.8587 95.5447 38.0587 94.99 37.056V46.816H90.702V23.232H94.446V26.112C95.086 25.1307 95.8967 24.3627 96.878 23.808C97.8593 23.232 98.9793 22.944 100.238 22.944C101.369 22.944 102.403 23.168 103.342 23.616C104.302 24.064 105.134 24.6933 105.838 25.504C106.542 26.2933 107.086 27.2107 107.47 28.256C107.875 29.28 108.078 30.3893 108.078 31.584C108.078 33.2053 107.758 34.6773 107.118 36C106.499 37.3227 105.635 38.3787 104.526 39.168C103.438 39.936 102.179 40.32 100.75 40.32ZM99.31 36.672C99.9713 36.672 100.569 36.5333 101.102 36.256C101.635 35.9787 102.094 35.6053 102.478 35.136C102.883 34.6453 103.182 34.1013 103.374 33.504C103.587 32.8853 103.694 32.2453 103.694 31.584C103.694 30.88 103.577 30.2293 103.342 29.632C103.129 29.0347 102.809 28.512 102.382 28.064C101.955 27.5947 101.454 27.232 100.878 26.976C100.323 26.72 99.7153 26.592 99.054 26.592C98.6487 26.592 98.2327 26.6667 97.806 26.816C97.4007 26.944 97.006 27.136 96.622 27.392C96.238 27.648 95.8967 27.9467 95.598 28.288C95.3207 28.6293 95.118 29.0027 94.99 29.408V33.344C95.246 33.9627 95.5873 34.528 96.014 35.04C96.462 35.552 96.974 35.9573 97.55 36.256C98.126 36.5333 98.7127 36.672 99.31 36.672ZM121.031 40.32C119.73 40.32 118.578 40.032 117.575 39.456C116.594 38.8587 115.826 38.0587 115.271 37.056V46.816H110.983V23.232H114.727V26.112C115.367 25.1307 116.178 24.3627 117.159 23.808C118.141 23.232 119.261 22.944 120.519 22.944C121.65 22.944 122.685 23.168 123.623 23.616C124.583 24.064 125.415 24.6933 126.119 25.504C126.823 26.2933 127.367 27.2107 127.751 28.256C128.157 29.28 128.359 30.3893 128.359 31.584C128.359 33.2053 128.039 34.6773 127.399 36C126.781 37.3227 125.917 38.3787 124.807 39.168C123.719 39.936 122.461 40.32 121.031 40.32ZM119.591 36.672C120.253 36.672 120.85 36.5333 121.383 36.256C121.917 35.9787 122.375 35.6053 122.759 35.136C123.165 34.6453 123.463 34.1013 123.655 33.504C123.869 32.8853 123.975 32.2453 123.975 31.584C123.975 30.88 123.858 30.2293 123.623 29.632C123.41 29.0347 123.09 28.512 122.663 28.064C122.237 27.5947 121.735 27.232 121.159 26.976C120.605 26.72 119.997 26.592 119.335 26.592C118.93 26.592 118.514 26.6667 118.087 26.816C117.682 26.944 117.287 27.136 116.903 27.392C116.519 27.648 116.178 27.9467 115.879 28.288C115.602 28.6293 115.399 29.0027 115.271 29.408V33.344C115.527 33.9627 115.869 34.528 116.295 35.04C116.743 35.552 117.255 35.9573 117.831 36.256C118.407 36.5333 118.994 36.672 119.591 36.672ZM139.041 40.32C137.697 40.32 136.481 40.096 135.393 39.648C134.305 39.1787 133.377 38.5493 132.609 37.76C131.841 36.9493 131.243 36.032 130.817 35.008C130.411 33.9627 130.209 32.864 130.209 31.712C130.209 30.112 130.561 28.6507 131.265 27.328C131.99 26.0053 133.014 24.9493 134.337 24.16C135.681 23.3493 137.259 22.944 139.073 22.944C140.907 22.944 142.475 23.3493 143.777 24.16C145.078 24.9493 146.07 26.0053 146.753 27.328C147.457 28.6293 147.809 30.0373 147.809 31.552C147.809 31.808 147.798 32.0747 147.777 32.352C147.755 32.608 147.734 32.8213 147.713 32.992H134.753C134.838 33.8453 135.083 34.592 135.489 35.232C135.915 35.872 136.449 36.3627 137.089 36.704C137.75 37.024 138.454 37.184 139.201 37.184C140.054 37.184 140.854 36.9813 141.601 36.576C142.369 36.1493 142.891 35.5947 143.169 34.912L146.849 35.936C146.443 36.7893 145.857 37.5467 145.089 38.208C144.342 38.8693 143.457 39.392 142.433 39.776C141.409 40.1387 140.278 40.32 139.041 40.32ZM134.657 30.272H143.425C143.339 29.4187 143.094 28.6827 142.689 28.064C142.305 27.424 141.793 26.9333 141.153 26.592C140.513 26.2293 139.798 26.048 139.009 26.048C138.241 26.048 137.537 26.2293 136.897 26.592C136.278 26.9333 135.766 27.424 135.361 28.064C134.977 28.6827 134.742 29.4187 134.657 30.272ZM160.405 26.944C159.103 26.944 157.941 27.2 156.917 27.712C155.893 28.2027 155.157 28.9173 154.709 29.856V40H150.421V23.232H154.357V26.816C154.954 25.664 155.711 24.7573 156.629 24.096C157.546 23.4347 158.517 23.072 159.541 23.008C159.775 23.008 159.957 23.008 160.085 23.008C160.213 23.008 160.319 23.0187 160.405 23.04V26.944Z" fill="white"/>
<g clip-path="url(#clip0_85_162)">
<path d="M10.0695 12.1396L10.0695 50H0L0 22.3559C0 16.7162 4.51306 12.1396 10.0695 12.1396Z" fill="white" fill-opacity="0.9"/>
<path d="M12.2031 26.6824C17.7618 26.6824 22.2726 31.2613 22.2726 36.8987L22.2726 50H12.2031L12.2031 26.6824Z" fill="white" fill-opacity="0.9"/>
<path d="M23.9297 39.7838C29.4883 39.7838 33.9992 44.3626 33.9992 50H23.9297L23.9297 39.7838Z" fill="white" fill-opacity="0.9"/>
<path d="M22.457 12.0811C22.457 17.7207 17.944 22.2973 12.3876 22.2973L12.3876 12.0811L22.457 12.0811Z" fill="white" fill-opacity="0.9"/>
<path d="M22.2726 5.10811C22.2726 2.28698 20.0185 0 17.2379 0C14.4573 0 12.2031 2.28698 12.2031 5.10811C12.2031 7.92924 14.4573 10.2162 17.2379 10.2162C20.0185 10.2162 22.2726 7.92924 22.2726 5.10811Z" fill="white" fill-opacity="0.9"/>
</g>
<defs>
<clipPath id="clip0_85_162">
<rect width="34" height="50" fill="white"/>
</clipPath>
</defs>
</svg>
